inDegrees=yes
name=ik_rai_2
DataType=double
version=3
OpenSimVersion=4.5
endheader
time	gndpitch	gndroll	gndyaw	spine_tx	spine_ty	spine_tz	pitch2	roll2	yaw2	aux7jnt_r3	aux7jnt_r1	aux7jnt_r2	aux6jnt_r3	aux6jnt_r1	aux6jnt_r2	aux5jnt_r3	aux5jnt_r1	aux5jnt_r2	aux4jnt_r3	aux4jnt_r1	aux4jnt_r2	aux3jnt_r3	aux3jnt_r1	aux3jnt_r2	pitch1	roll1	yaw1	aux1jnt_r3	aux1jnt_r1	aux1jnt_r2
105.6750000000069	4.21296440140691e-09	8.002416233845703e-10	4.440363815649541e-10	-3.97872216927308e-17	8.44526185968539e-17	-7.30666612219483e-19	0.3558972788353817	-0.007535682248152565	-0.007433095904588334	3.813197435454553	-0.05915145008403144	-0.08006637476062944	4.486103633792689	-0.06778680480814933	-0.09326875438291538	4.486103633792689	-0.09326069306440282	-0.09326875438291538	3.364577725344516	-0.09326069306440282	-0.09326875438291538	2.243051816896344	-0.0846255857220375	-0.04003318738031472	0.4163241049361472	-0.03117609184116941	-0.3629926396351866	13.26260289184399	-0.8931292421056236	-2.308576442286359
105.7000000000069	4.21296440140691e-09	8.002416233845703e-10	4.440363815649541e-10	-3.97872216927308e-17	8.44526185968539e-17	-7.30666612219483e-19	0.3537904031254629	-0.007614210648512277	-0.006901299158032859	3.790623694289199	-0.0597678599326817	-0.0743380701412983	4.459546356341324	-0.0684932026062246	-0.08659589279565925	4.459546356341324	-0.0942325510596863	-0.08659589279565925	3.344659767255992	-0.0942325510596863	-0.08659589279565925	2.229773178170662	-0.08550745834583143	-0.03716903507064915	0.4163175981444458	-0.03008179260133183	-0.3624723471809423	13.26239560863984	-0.8617798781220903	-2.305267463613474
105.7250000000069	4.21296440140691e-09	8.002416233845703e-10	4.440363815649541e-10	-3.97872216927308e-17	8.44526185968539e-17	-7.30666612219483e-19	0.3514373872726749	-0.007512859780944699	-0.006496395782700314	3.765412728797143	-0.05897230478764345	-0.06997661082375931	4.429886469640008	-0.06758150659109269	-0.08151525964529299	4.429886469640008	-0.09297824496758247	-0.08151525964529299	3.322414852230004	-0.09297824496758247	-0.08151525964529299	2.214943234820004	-0.08436928979666872	-0.03498830541187965	0.4163064262472604	-0.02901842178244598	-0.3616719300662465	13.26203971179371	-0.8313165481323246	-2.30017693589135
105.7500000000069	4.21296440140691e-09	8.002416233845703e-10	4.440363815649541e-10	-3.97872216927308e-17	8.44526185968539e-17	-7.30666612219483e-19	0.3488502826663863	-0.007192598846970677	-0.006214407145618769	3.737693661424012	-0.05645841181471684	-0.06693914054426692	4.397275882075942	-0.06470061741555493	-0.07797693197290466	4.397275882075942	-0.08901473434169122	-0.07797693197290466	3.297956911556958	-0.08901473434169122	-0.07797693197290466	2.198637941037971	-0.0807727648598468	-0.03346957027213346	0.4162893367494438	-0.02801488001328039	-0.3606018485883401	13.26149530127201	-0.8025671941631832	-2.29337138497521
105.7750000000069	4.21296440140691e-09	8.002416233845703e-10	4.440363815649541e-10	-3.97872216927308e-17	8.44526185968539e-17	-7.30666612219483e-19	0.3460184000981916	-0.0066405404278271	-0.006065111288429325	3.707351964567307	-0.05212502102830825	-0.06533098450735181	4.361579855623521	-0.05973460703071399	-0.07610360236525254	4.361579855623521	-0.08218252604442937	-0.07610360236525254	3.271184891717639	-0.08218252604442937	-0.07610360236525254	2.180789927811761	-0.07457315803801361	-0.0326654922536759	0.4162661639577242	-0.02706679111704042	-0.3592015292482367	13.26075709867738	-0.7754064479843009	-2.284465572880811
105.8000000000069	4.21296440140691e-09	8.002416233845703e-10	4.440363815649541e-10	-3.97872216927308e-17	8.44526185968539e-17	-7.30666612219483e-19	0.3429550995078452	-0.005855964300109476	-0.006189425387819553	3.674530780900605	-0.045966479024074	-0.06667004691116803	4.322966793015338	-0.05267699670753942	-0.07766346670054115	4.322966793015338	-0.07247270667794994	-0.07766346670054115	3.242225094761505	-0.07247270667794994	-0.07766346670054115	2.161483396507669	-0.06576238123437116	-0.03333502345558401	0.4162429225040054	-0.02612885419671669	-0.3573985522606891	13.26001670875605	-0.7485365344922794	-2.272998921095199
105.8250000000069	4.21296440140691e-09	8.002416233845703e-10	4.440363815649541e-10	-3.97872216927308e-17	8.44526185968539e-17	-7.30666612219483e-19	0.3396496871585918	-0.004900847804825186	-0.006632308161337621	3.639115534303223	-0.03846927786367698	-0.0714406053130346	4.281301899145702	-0.04408530012283593	-0.08322065648443243	4.281301899145702	-0.0606523003266518	-0.08322065648443243	3.210976424359279	-0.0606523003266518	-0.08322065648443243	2.140650949572851	-0.05503643895276886	-0.0357203026565173	0.4162182624517981	-0.02521112173685834	-0.355050896927415	13.25923112734042	-0.7222454361562557	-2.258068200179062
105.8500000000069	4.21296440140691e-09	8.002416233845703e-10	4.440363815649541e-10	-3.97872216927308e-17	8.44526185968539e-17	-7.30666612219483e-19	0.3361442064035958	-0.003775043839943998	-0.007554418713431731	3.601556690726987	-0.02963226286753426	-0.08137321616353435	4.237115132658926	-0.03395819402857951	-0.09479108470184343	4.237115132658926	-0.04671948647357042	-0.09479108470184343	3.177836349494194	-0.04671948647357042	-0.09479108470184343	2.118557566329463	-0.04239367923985198	-0.04068660808176718	0.4161973323630042	-0.02427712229210251	-0.3521144677564987	13.25856436927171	-0.6954883230302208	-2.239392969697164
105.8750000000069	4.21296440140691e-09	8.002416233845703e-10	4.440363815649541e-10	-3.97872216927308e-17	8.44526185968539e-17	-7.30666612219483e-19	0.3322690420704927	-0.002471639205076291	-0.009283506407222518	3.560036938889297	-0.01940116876619207	-0.09999826621832809	4.188268485521963	-0.02223349112043086	-0.1164872739463735	4.188268485521963	-0.03058870818592053	-0.1164872739463735	3.14120136414147	-0.03058870818592053	-0.1164872739463735	2.094134242760981	-0.02775646697077968	-0.04999913310916405	0.4161809226377002	-0.02323394474822304	-0.3483342407029596	13.25804161388067	-0.6656034877566608	-2.215351316590741
105.900000000007	4.21296440140691e-09	8.002416233845703e-10	4.440363815649541e-10	-3.97872216927308e-17	8.44526185968539e-17	-7.30666612219483e-19	0.3278843696659676	0.0124647990855497	-0.08793064221531409	3.513058154384521	0.09784262614007337	-0.9471541660330658	4.132999462754217	0.1121263974196979	-1.103333197470211	4.132999462754217	0.1542628475227808	-1.103333197470211	3.099749597065664	0.1542628475227808	-1.103333197470211	2.066499731377109	0.1399794854381947	-0.4735770830165329	0.4161259859127153	-0.009251957070854317	-0.2686093923975205	13.2562915255264	-0.2650490461980838	-1.708313744567892
105.925000000007	4.21296440140691e-09	8.002416233845703e-10	4.440363815649541e-10	-3.97872216927308e-17	8.44526185968539e-17	-7.30666612219483e-19	0.3232889983634495	0.01339823855128039	-0.08721451544406879	3.463821874402094	0.1051696731340167	-0.9394403311547533	4.075074569463905	0.1205230995071858	-1.09434740570973	4.075074569463905	0.1658149815752818	-1.09434740570973	3.05630592709793	0.1658149815752818	-1.09434740570973	2.037537284731953	0.1504619950401477	-0.4697201655773767	0.4160770100646161	-0.008653529820651141	-0.2670465509603003	13.25473132947498	-0.247905368306955	-1.698374317342531
105.950000000007	4.21296440140691e-09	8.002416233845703e-10	4.440363815649541e-10	-3.97872216927308e-17	8.44526185968539e-17	-7.30666612219483e-19	0.3178406154386933	0.01459972443693484	-0.0865329063170563	3.405446154688696	0.1146007544948825	-0.9320983067137734	4.006397420492646	0.1313309980528804	-1.085794733301286	4.006397420492646	0.1806844257361878	-1.085794733301286	3.004798065369485	0.1806844257361878	-1.085794733301286	2.003198710246323	0.1639546614586671	-0.4660491533568867	0.4160190779499955	-0.007965487505661371	-0.2646245311481537	13.25288581867754	-0.2281944079192947	-1.682970649965992
